<svg width="2500" height="1841" viewBox="0 0 2500 1841" fill="none" xmlns="http://www.w3.org/2000/svg">
<g clip-path="url(#clip0_1407_2)">
<path d="M2482.55 1782.65C2482.55 1809.47 2462.86 1827.48 2439.54 1827.48V1827.31C2415.56 1827.48 2396.23 1809.47 2396.23 1782.66C2396.23 1755.85 2415.56 1737.89 2439.54 1737.89C2462.86 1737.89 2482.55 1755.84 2482.55 1782.65ZM2500 1782.65C2500 1745.83 2471.41 1724.46 2439.54 1724.46C2407.45 1724.46 2378.86 1745.83 2378.86 1782.65C2378.86 1819.44 2407.46 1840.89 2439.54 1840.89C2471.41 1840.89 2500 1819.44 2500 1782.65ZM2429.51 1787.57H2435.98L2450.98 1813.91H2467.45L2450.83 1786.46C2459.42 1785.85 2466.48 1781.77 2466.48 1770.21C2466.48 1755.84 2456.57 1751.23 2439.81 1751.23H2415.55V1813.91H2429.49L2429.51 1787.57ZM2429.51 1776.96V1761.87H2439.21C2444.49 1761.87 2451.68 1762.3 2451.68 1768.74C2451.68 1775.74 2447.96 1776.96 2441.74 1776.96H2429.51ZM2092.83 1461.97L2168.21 1668.2H2015.11L2092.83 1461.97ZM2012.09 1381.67L1838.37 1821.84H1961.03L1988.51 1744.05H2194.1L2220.11 1821.84H2353.28L2178.26 1381.62L2012.09 1381.67ZM1663.31 1822H1787.77V1381.54L1663.29 1381.51L1663.31 1822ZM799.294 1381.51L695.456 1730.61L595.985 1381.54L461.696 1381.51L603.76 1822H783.062L926.272 1381.51H799.294ZM1302.37 1477.42H1355.87C1433.47 1477.42 1483.67 1512.26 1483.67 1602.68C1483.67 1693.11 1433.47 1727.96 1355.87 1727.96H1302.37V1477.42ZM1178.96 1381.51V1822H1380.73C1488.23 1822 1523.34 1804.13 1561.29 1764.05C1588.1 1735.9 1605.45 1674.12 1605.45 1606.61C1605.45 1544.67 1590.77 1489.46 1565.19 1455.06C1519.09 1393.54 1452.68 1381.51 1353.57 1381.51H1178.96ZM0 1380.9V1822H125.512V1487.07L222.764 1487.1C254.965 1487.1 277.919 1495.13 293.426 1511.69C313.094 1532.64 321.125 1566.45 321.125 1628.32V1822H442.746V1578.29C442.746 1404.35 331.88 1380.9 223.404 1380.9H0ZM978.653 1381.51L978.703 1822H1103.11V1381.51H978.653Z" fill="#E0E0DD"/>
<path d="M334.484 504.446C334.484 504.446 494.559 268.267 814.175 243.833V158.148C460.159 186.579 153.595 486.414 153.595 486.414C153.595 486.414 327.228 988.349 814.175 1034.31V943.237C456.83 898.282 334.484 504.446 334.484 504.446ZM814.175 762.107V845.523C544.102 797.367 469.136 516.631 469.136 516.631C469.136 516.631 598.809 372.98 814.175 349.685V441.21C814.012 441.21 813.898 441.16 813.763 441.16C700.727 427.595 612.424 533.191 612.424 533.191C612.424 533.191 661.918 710.949 814.175 762.107ZM814.175 0.107178V158.148C824.568 157.351 834.96 156.676 845.409 156.32C1247.89 142.755 1510.13 486.414 1510.13 486.414C1510.13 486.414 1208.94 852.658 895.145 852.658C866.386 852.658 839.463 849.991 814.175 845.509V943.237C836.541 946.111 859.066 947.565 881.615 947.591C1173.62 947.591 1384.79 798.463 1589.26 621.963C1623.16 649.114 1761.96 715.167 1790.49 744.075C1596.07 906.853 1142.97 1038.06 886.09 1038.06C861.329 1038.06 837.549 1036.57 814.175 1034.31V1171.63H1924.06V0.107178H814.175ZM814.175 349.685V243.833C824.461 243.115 834.825 242.567 845.409 242.233C1134.83 233.142 1324.71 490.945 1324.71 490.945C1324.71 490.945 1119.62 775.772 899.726 775.772C868.079 775.772 839.705 770.686 814.168 762.1V441.203C926.841 454.818 949.518 504.588 1017.26 617.51L1167.92 490.476C1167.92 490.476 1057.94 346.242 872.553 346.242C852.394 346.235 833.111 347.657 814.175 349.685Z" fill="#E0E0DD"/>
</g>
<defs>
<clipPath id="clip0_1407_2">
<rect width="2500" height="1841" fill="white"/>
</clipPath>
</defs>
</svg>
