<svg width="2500" height="327" viewBox="0 0 2500 327" fill="none" xmlns="http://www.w3.org/2000/svg">
<g clip-path="url(#clip0_1407_13)">
<path d="M1079.35 211.345H1244.47L1157.16 70.876L996.912 324.848H923.986L1118.89 19.7713C1127.37 7.44779 1141.49 0 1157.16 0C1172.31 0 1186.43 7.18912 1194.65 19.2588L1390.33 324.848H1317.4L1282.99 268.096H1115.82L1079.35 211.345H1079.35ZM1836.9 268.091V3.07966H1775.01V294.032C1775.01 301.992 1778.09 309.698 1784 315.604C1789.9 321.509 1797.86 324.848 1806.59 324.848H2088.81L2125.28 268.096H1836.89L1836.9 268.091ZM813.045 220.583C873.14 220.583 921.931 172.051 921.931 111.961C921.931 51.8661 873.14 3.07478 813.045 3.07478H542.304V324.853H604.17V59.8361H808.94C837.702 59.8361 860.811 83.2093 860.811 111.971C860.811 140.727 837.702 164.095 808.94 164.095L634.474 163.842L819.209 324.853H909.09L784.801 220.593H813.05L813.045 220.583ZM161.48 324.848C72.6536 324.853 0.567139 252.947 0.567139 164.095C0.567139 75.2393 72.6536 3.08454 161.48 3.08454H348.505C437.351 3.08454 509.384 75.2393 509.384 164.095C509.384 252.947 437.351 324.848 348.5 324.848H161.48ZM344.347 268.096C401.894 268.096 448.503 221.613 448.503 164.091C448.503 106.573 401.894 59.8361 344.347 59.8361H165.619C108.092 59.8361 61.4575 106.573 61.4575 164.095C61.4575 221.613 108.092 268.096 165.614 268.096H344.342H344.347ZM1519.5 324.848C1430.65 324.848 1358.49 252.947 1358.49 164.095C1358.49 75.2393 1430.65 3.08454 1519.5 3.08454H1741.63L1705.42 59.8361H1523.61C1466.08 59.8361 1419.35 106.573 1419.35 164.095C1419.35 221.613 1466.08 268.096 1523.61 268.096H1746.76L1710.29 324.848H1519.5ZM2276.28 268.096C2228.77 268.096 2188.46 236.255 2176.13 192.339H2440.63L2477.09 135.588H2176.13C2188.46 91.9309 2228.77 59.8361 2276.28 59.8361H2457.84L2494.55 3.07478H2272.17C2183.32 3.07478 2111.16 75.2344 2111.16 164.086C2111.16 252.942 2183.32 324.843 2272.17 324.843H2462.97L2499.43 268.096H2276.28H2276.28Z" fill="#E0E0DD"/>
</g>
<defs>
<clipPath id="clip0_1407_13">
<rect width="2500" height="327" fill="white"/>
</clipPath>
</defs>
</svg>
