<svg width="2280" height="670" viewBox="0 0 2280 670" fill="none" xmlns="http://www.w3.org/2000/svg">
<path fill-rule="evenodd" clip-rule="evenodd" d="M0 0H467.378V669.681H0V0ZM67.365 602.264H399.78V67.4428H67.365V602.264Z" fill="#E0E0DD"/>
<path fill-rule="evenodd" clip-rule="evenodd" d="M777.836 300.457H748.926C710.951 246.815 673.287 193.509 635.674 133.264H635.402V300.457H603.444V67.339H632.38C670.355 120.606 707.968 173.535 745.23 233.469H745.891V67.339H777.849L777.836 300.457ZM853.8 208.191C863.073 177.543 872.411 149.243 880.751 113.265H881.425C890.738 149.243 899.077 177.556 907.728 208.191H853.8ZM869.078 67.339L788.536 300.457H823.165L843.424 236.828H913.733L932.033 300.457H976.688L902.397 67.339H869.078ZM1014.29 300.457V98.6091H952.993V67.339H1115.49V98.6091H1054.25V300.457H1014.29ZM1128.45 67.339H1168.13V300.457H1128.45V67.339ZM1291.35 271.107C1249.68 271.107 1235.03 225.155 1235.03 180.526C1235.03 137.583 1251.67 96.6118 1291.35 96.6118C1330.97 96.6118 1347.56 137.583 1347.56 180.526C1347.56 225.155 1332.94 271.107 1291.35 271.107ZM1291.35 304.4C1352.27 304.4 1390.22 250.148 1390.22 180.513C1390.22 115.262 1348.32 63.3184 1291.35 63.3184C1234.42 63.3184 1192.35 115.262 1192.35 180.513C1192.36 250.161 1230.38 304.4 1291.35 304.4ZM1589.02 300.457H1560.07C1522.07 246.815 1484.43 193.509 1446.84 133.264H1446.52V300.457H1414.6V67.339H1443.55C1481.47 120.606 1519.11 173.535 1556.35 233.469H1557.03V67.339H1589.03V300.457H1589.02ZM1664.94 208.191C1674.29 177.543 1683.57 149.243 1691.94 113.265H1692.61C1701.93 149.243 1710.23 177.556 1718.87 208.191H1664.94ZM1680.3 67.339L1599.72 300.457H1634.37L1654.63 236.828H1724.93L1743.24 300.457H1787.84L1713.57 67.339H1680.3ZM1799.45 67.339H1839.15V269.135H1918.03V300.457H1799.45V67.339ZM753.271 495.445V591.655C731.936 600.02 709.615 605.973 687.035 605.973C618.411 605.973 575.131 552.694 575.131 484.083C575.131 420.454 618.411 364.865 688.344 364.865C709.952 364.865 731.612 372.894 744.945 382.867L731.949 410.506C721.314 403.904 704.621 398.237 689.33 398.237C646.737 398.237 617.737 431.88 617.737 484.836C617.737 540.074 651.056 572.68 685.361 572.68C695.971 572.68 705.011 571.409 713.376 567.038V495.445H753.271ZM896.198 400.234H829.52V464.136H894.784V495.445H829.52V570.657H908.104V602.005H789.535V368.873H896.198V400.234ZM1019.4 572.667C977.726 572.667 963.057 526.754 963.057 482.099C963.057 439.182 979.71 398.224 1019.4 398.224C1058.99 398.224 1075.61 439.182 1075.61 482.099C1075.61 526.754 1060.93 572.667 1019.4 572.667ZM1019.4 605.973C1080.3 605.973 1118.24 551.695 1118.24 482.086C1118.24 416.835 1076.31 364.852 1019.4 364.852C962.383 364.852 920.477 416.835 920.477 482.086C920.464 551.708 958.362 605.973 1019.4 605.973ZM1310.02 495.445V591.655C1288.69 600.02 1266.43 605.973 1243.76 605.973C1175.19 605.973 1131.87 552.694 1131.87 484.083C1131.87 420.454 1175.19 364.865 1245.12 364.865C1266.78 364.865 1288.39 372.894 1301.68 382.867L1288.69 410.506C1278.03 403.904 1261.48 398.237 1246.14 398.237C1203.45 398.237 1174.48 431.88 1174.48 484.836C1174.48 540.074 1207.81 572.68 1242.11 572.68C1252.8 572.68 1261.75 571.409 1270.1 567.038V495.445H1310.02ZM1386.7 400.234H1404.3C1427.88 400.234 1441.24 413.826 1441.24 437.833C1441.24 469.103 1422.29 483.072 1403.29 484.071C1399.28 484.473 1389.94 484.81 1386.7 485.095V400.234ZM1487.9 602.005L1440.86 505.471C1466.5 491.852 1481.24 464.136 1481.24 436.16C1481.24 390.831 1453.55 368.873 1408.92 368.873H1346.65V602.005H1386.7V514.095H1404.66L1442.23 602.005H1487.9ZM1553.82 509.751C1563.12 479.064 1572.44 450.79 1580.79 414.825H1581.46C1590.78 450.79 1599.08 479.064 1607.75 509.751H1553.82ZM1569.11 368.873L1488.5 602.005H1523.13L1543.47 538.375H1613.76L1631.97 602.005H1676.68L1602.38 368.873H1569.11ZM1751.58 368.873H1689.31V602.005H1729.28V514.095H1747.22C1794.87 514.095 1823.87 475.459 1823.87 436.16C1823.87 390.818 1796.21 368.873 1751.58 368.873ZM1745.98 484.083C1741.83 484.46 1732.07 484.771 1729.28 485.043V400.234H1747.22C1770.53 400.234 1783.9 413.826 1783.9 437.833C1783.9 469.103 1764.98 483.085 1745.98 484.083ZM2008.99 602.005H1969.04V489.816H1886.06V602.005H1846.54V368.873H1886.06V458.455H1969.04V369.535H2008.99V602.005ZM2047.25 368.873H2086.96V602.005H2047.25V368.873ZM2266.71 411.193C2257.04 405.188 2241.12 398.224 2225.73 398.224C2185.04 398.224 2155.51 431.867 2155.51 484.823C2155.51 540.061 2188.12 572.667 2226.77 572.667C2240.91 572.6 2254.76 568.555 2266.71 560.994L2277.74 589.995C2265.68 598.308 2244.43 605.973 2225.14 605.973C2156.52 605.973 2113.2 552.694 2113.2 484.083C2113.2 420.454 2156.15 364.865 2225.73 364.865C2246.43 364.865 2265.68 373.581 2279.41 382.867L2266.71 411.193Z" fill="#E0E0DD"/>
</svg>
