<svg width="5346" height="1713" viewBox="0 0 5346 1713" fill="none" xmlns="http://www.w3.org/2000/svg">
<path fill-rule="evenodd" clip-rule="evenodd" d="M4477.8 1.80957C4789.8 316.256 5221.85 668.295 5325.55 1107.57C5489.02 1800 4534.19 1781.32 4070.74 1612.31C2706.7 1114.92 1357.55 586.29 0.982426 73.2825C1320 383.207 2634.3 709.243 3958.08 1003.05C4905.11 1213.26 4720.81 467.573 4477.8 1.80957Z" fill="#E0E0DD"/>
<path d="M4476.48 0.611542C4476.86 0.317311 4477.36 0.164561 4477.86 0.185493C4478.37 0.206425 4478.84 0.399429 4479.19 0.723799C4498.81 20.4195 4492.2 13.8121 4498.81 20.4087C4503.78 25.3724 4508.82 30.2818 4513.83 35.2311C4532.34 53.6342 4551.02 71.9758 4569.73 90.2196C4626.21 145.208 4683.17 199.799 4739.4 254.954C4871.72 384.663 5000.92 518.007 5108.8 664.638C5192.76 778.757 5263.56 901.348 5306.31 1032.45C5313.64 1054.88 5320.1 1077.52 5325.68 1100.33C5354.08 1216.88 5358.83 1343.85 5298.23 1453.44C5288.67 1470.75 5277.53 1487.48 5265.01 1503.26C5245.08 1528.35 5221.63 1551.16 5195.5 1571.36C5156.46 1601.52 5111.7 1625.67 5064.55 1644.68C4992.21 1673.82 4914.28 1691.2 4835.74 1701.12C4719.74 1715.79 4601.38 1714.88 4485.1 1703.62C4370.18 1692.51 4255.96 1671.4 4146.34 1638.78C4100.58 1625.16 4056.17 1608.47 4011.56 1592.18C3960.05 1573.35 3908.58 1554.53 3857.15 1535.59C3679.73 1470.39 3502.63 1404.71 3325.66 1338.64C2658.43 1089.4 1993.71 834.912 1329.07 580.461C994.084 452.215 659.219 323.704 323.78 196.46C242.558 165.653 161.294 134.94 80.0717 104.137C60.6586 96.7692 41.2859 89.3254 21.8729 81.9577C16.5785 79.9519 11.2434 77.9714 5.94899 75.962C5.29231 75.705 1.6393 74.4921 1.59826 74.1518C1.47513 73.482 2.25506 73.5761 2.74757 73.4747C2.70652 73.3371 3.03498 73.2901 2.87081 73.1344C2.82977 73.0728 3.03522 73.2104 3.11731 73.2466C4.26649 73.2828 5.62101 73.6413 6.31873 73.8115C9.76628 74.6225 13.1728 75.3791 16.5793 76.1901C33.776 80.2342 50.972 84.2494 68.1688 88.2936C112.823 98.8148 157.436 109.416 202.049 119.973C332.523 150.811 462.969 181.737 593.388 212.753C984.644 305.895 1375.61 399.927 1766.79 493.344C2454.74 657.614 3143.06 821.081 3834.05 975.207C3875.42 984.44 3916.71 993.708 3958.08 1002.83C3993.13 1010.54 4028.47 1017.5 4064.01 1023.18C4091.74 1027.65 4119.64 1031.27 4147.65 1034.04C4169.28 1036.18 4190.91 1037.7 4212.66 1038.57C4146.42 1036.03 4080.51 1027.45 4015.78 1015.14C3986.03 1009.49 3956.56 1002.94 3927.05 996.387C3896.02 989.472 3864.95 982.593 3833.92 975.678C3661.59 937.264 3489.5 897.981 3317.45 858.662C2728.98 724.196 2142.24 584.19 1555.54 443.898C1210.75 361.448 865.868 278.933 520.907 196.909C405.906 169.571 290.905 142.406 175.905 115.223C136.422 105.893 96.8989 96.5737 57.3751 87.2762L21.3399 78.7932C17.9744 77.9931 14.609 77.2147 11.2025 76.4146C11.4077 76.4943 11.6536 76.563 11.8588 76.6427C17.1533 78.6484 22.4482 80.6289 27.7427 82.6383C45.4319 89.329 63.0798 96.085 80.728 102.776C151.362 129.546 221.995 156.226 292.629 182.996C573.358 289.403 853.719 396.773 1134.12 503.995C1832.37 770.973 2530.17 1039.04 3231.1 1300.62C3436.43 1377.23 3641.85 1453.59 3847.63 1529.15C3902.63 1549.35 3957.67 1569.59 4012.71 1589.68C4052.11 1604.06 4091.34 1618.83 4131.6 1631.32C4211.47 1656.08 4294.21 1674.4 4377.61 1687.11C4432.28 1695.44 4487.32 1701.7 4542.68 1705.32C4585.62 1708.11 4628.75 1709.23 4671.84 1708.94C4706.4 1708.69 4741.04 1707.28 4775.44 1704.42C4798.5 1702.5 4821.44 1700.15 4844.33 1697.07C4989.3 1677.55 5140.06 1630.31 5237.82 1529.26C5253.42 1513.15 5267.43 1495.8 5279.64 1477.56C5297.37 1451.02 5311.1 1422.45 5321.06 1392.94C5336.92 1345.99 5343.08 1296.78 5342.35 1247.87C5341.16 1168.29 5322.55 1089.18 5296.05 1013.33C5253.76 892.297 5187.75 778.613 5110.21 672.35C4991.47 509.607 4846.3 363.378 4699.14 220.443C4650.01 172.717 4600.43 125.216 4551.51 77.3197C4537.1 63.2105 4542.73 68.6522 4480.34 6.83167C4480.34 6.80633 4480.22 6.74838 4480.22 6.71942C4476.81 3.3487 4480.22 6.70489 4476.36 2.87437C4476.19 2.7216 4476.06 2.5404 4475.98 2.34181C4475.89 2.14322 4475.86 1.93144 4475.87 1.71953C4475.88 1.50763 4475.94 1.29994 4476.05 1.10941C4476.15 0.918877 4476.3 0.749512 4476.48 0.611542ZM4212.66 1038.57C4273.08 1040.96 4336.2 1037.99 4395.55 1024.88C4348.55 1035.31 4299.88 1039.62 4251.53 1039.69C4238.56 1039.73 4225.63 1039.07 4212.66 1038.57ZM4483.42 12.8308C4485.96 17.725 4488.47 22.6272 4490.97 27.5375C4494.5 34.4309 4497.83 41.4258 4501.23 48.3555C4499.43 44.6445 4494.34 34.4345 4483.42 12.8308ZM4501.23 48.3555C4501.93 49.7168 4506.44 58.6233 4507.8 61.3677C4508.41 62.7073 4508.95 64.1012 4509.56 65.4408C4506.81 59.7457 4504.02 54.0361 4501.23 48.3555ZM4509.56 65.4408C4510.79 67.9389 4512.11 70.4082 4513.3 72.9063C4527.95 103.388 4541.62 134.195 4554.71 165.23C4540.54 131.662 4525.49 98.3897 4509.56 65.4408ZM4554.71 165.23C4555.57 167.214 4556.6 169.133 4557.42 171.117C4561.81 181.624 4565.87 192.224 4570.1 202.796C4565.11 190.229 4559.98 177.707 4554.71 165.23ZM4570.1 202.796C4573.47 211.138 4577.04 219.425 4580.24 227.8C4581.02 229.751 4581.67 231.728 4582.41 233.683C4578.47 223.325 4574.25 213.093 4570.1 202.796ZM4590.13 254.954C4595.63 269.885 4601.05 284.823 4606.18 299.87C4601.09 284.838 4595.63 269.87 4590.13 254.954ZM4606.18 299.87C4608.56 307.017 4610.77 314.196 4613.07 321.369C4610.77 314.204 4608.56 307.006 4606.18 299.87ZM4613.07 321.369C4616.77 332.712 4620.62 344.011 4623.99 355.423C4625.02 358.921 4625.92 362.44 4626.94 365.945C4622.59 351.003 4617.87 336.206 4613.07 321.369ZM4626.94 365.945C4628.83 372.487 4630.52 379.073 4632.32 385.633C4630.52 379.062 4628.83 372.494 4626.94 365.945ZM4645.17 435.528C4645.66 437.682 4646.32 439.818 4646.81 441.976C4647.3 444.04 4647.63 446.132 4648.08 448.199C4647.14 443.971 4646.15 439.746 4645.17 435.528ZM4665.28 541.432C4666.26 548.455 4666.92 555.516 4667.74 562.576C4666.92 555.552 4666.26 548.455 4665.28 541.432ZM4667.74 562.576C4668.64 570.577 4669.96 578.542 4670.65 586.58C4671.15 591.974 4671.31 597.333 4671.68 602.764C4670.82 589.331 4669.26 575.972 4667.74 562.576ZM4671.84 606.492C4672.91 623.545 4673.53 640.634 4673.36 657.723C4673.53 640.634 4672.87 623.581 4671.84 606.492ZM4673.36 659.787C4673.12 680.931 4671.72 702.111 4669.14 723.146C4671.68 702.002 4673.12 680.75 4673.36 659.787ZM4668.11 730.93C4666.96 739.294 4665.98 747.657 4664.38 755.948C4663.92 758.301 4663.1 760.582 4662.57 762.972C4664.79 752.328 4666.63 741.683 4668.11 730.93ZM4662.57 762.972C4659.86 776.006 4656.33 788.895 4652.31 801.639C4656.37 788.859 4659.86 776.006 4662.57 762.972ZM4652.31 801.639C4650.87 806.346 4649.64 811.052 4647.96 815.687C4649.6 811.052 4650.87 806.346 4652.31 801.639ZM4631.95 853.485C4628.18 861.052 4623.99 868.438 4619.64 875.752C4624.05 868.463 4628.15 861.036 4631.95 853.485ZM4619.64 875.752C4618.82 877.055 4618.12 878.431 4617.3 879.734C4618.12 878.431 4618.82 877.091 4619.64 875.752ZM4617.3 879.734C4611.64 888.894 4605.44 897.909 4598.71 906.526C4605.52 897.837 4611.59 888.894 4617.3 879.734ZM4598.71 906.526C4586.76 921.877 4573.26 936.287 4557.79 949.429C4546.67 958.879 4534.48 967.206 4521.88 975.099C4534.31 967.315 4546.38 958.77 4557.67 949.176C4572.94 936.216 4586.69 921.927 4598.71 906.526ZM4520.85 975.786C4516.05 978.755 4511.37 981.942 4506.36 984.729C4500.99 987.698 4495.12 989.834 4489.58 992.514C4500.25 987.336 4510.84 982.014 4520.85 975.786ZM4433.39 1014.71C4427.73 1016.44 4422.23 1018.69 4416.48 1020.25C4410.16 1021.91 4403.72 1023.11 4397.35 1024.56C4409.54 1021.8 4421.57 1018.36 4433.39 1014.71Z" fill="#E0E0DD"/>
</svg>
