<svg width="2427" height="598" viewBox="0 0 2427 598" fill="none" xmlns="http://www.w3.org/2000/svg">
<path d="M317.07 25.001L317.041 25.0009C140.796 24.6032 25 150.18 25 299.421C25 448.474 140.305 572.7 317.37 572.751L317.07 25.001ZM317.07 25.001H317.098M317.07 25.001H317.098M317.098 25.001H2109.38H2109.41M317.098 25.001H2109.41M2109.41 25.001L2109.43 25.0009M2109.41 25.001L2109.43 25.0009M2109.43 25.0009C2285.68 24.6032 2401.47 150.18 2401.47 299.421M2109.43 25.0009L2401.47 299.421M2401.47 299.421C2401.47 448.47 2286.15 572.7 2109.07 572.751M2401.47 299.421L2109.07 572.751M2109.07 572.751C2109.06 572.751 2109.06 572.751 2109.06 572.751M2109.07 572.751H2109.06M2109.06 572.751H317.377H2109.06Z" stroke="#E0E0DD" stroke-width="50"/>
<path fill-rule="evenodd" clip-rule="evenodd" d="M240.732 157.675H328.356L449.688 353.882L449.623 157.675H536.585V439.093H449.74L327.798 242.873V439.093H240.693L240.732 157.675ZM1009.55 186.649H1094.25V224.508H1140.07V252.302H1094.25L1094.3 439.093H1009.55L1009.59 252.302H963.602V224.534H1009.62L1009.55 186.649ZM585.04 251.965H669.668V439.093H585.04V251.965ZM584.859 157.623H669.668V215.157H584.859V157.623ZM2101.92 344.025C2101.92 344.025 2101.87 372.273 2101.87 383.647C2101.87 413.465 2084.27 425.799 2067.26 425.799C2050.34 425.799 2032.61 413.465 2032.61 383.647C2032.61 372.273 2032.66 343.324 2032.66 343.324C2032.66 343.324 2032.74 315.66 2032.74 304.285C2032.74 274.584 2050.39 262.367 2067.26 262.367C2084.14 262.367 2101.87 274.584 2101.87 304.285C2101.87 315.66 2101.87 336.606 2101.92 344.154V344.025ZM2067.93 239.177C1999.65 239.177 1944.31 286.231 1944.31 344.284C1944.31 402.298 1999.67 449.339 2067.93 449.339C2136.28 449.339 2191.62 402.298 2191.62 344.284C2191.62 286.231 2136.28 239.177 2067.93 239.177ZM1833.21 157.675H1916.72V439.041H1833.08L1833.03 428.276C1800.68 448.587 1764.08 448.535 1735.6 435.293C1727.97 431.726 1677.72 407.602 1677.72 342.533C1677.72 293.092 1724.36 239.177 1785.3 244.52C1805.39 246.31 1819.65 253.625 1833.2 261.213L1833.21 157.675ZM1833.82 344.582V311.146C1833.82 282.198 1813.86 274.831 1800.68 274.831C1787.18 274.831 1767.47 282.198 1767.47 311.146C1767.47 320.692 1767.52 344.504 1767.52 344.504C1767.52 344.504 1767.47 367.785 1767.47 377.759C1767.47 406.681 1787.18 414.23 1800.68 414.23C1813.86 414.23 1833.82 406.681 1833.82 377.759V344.582ZM867.755 243.314C899.375 242.445 963.602 263.158 963.135 337.267C963.044 350.393 963.109 439.054 963.109 439.054H879.039V316.165C879.039 299.837 863.436 281.692 840.402 281.692C817.329 281.692 800.209 299.837 800.209 316.165L800.299 439.054H716.268L716.203 251.939L800.286 251.874C800.286 251.874 800.196 266.945 800.286 271.536C818.52 254.121 842.552 244.068 867.755 243.314ZM1555.5 243.314C1587.07 242.445 1651.28 263.158 1650.88 337.267C1650.75 350.393 1650.8 439.054 1650.8 439.054H1566.73V316.165C1566.73 299.837 1551.16 281.692 1528.1 281.692C1505.04 281.692 1487.87 299.837 1487.87 316.165L1488 439.054H1403.99L1404.04 251.939L1488 251.874C1488 251.874 1487.87 266.945 1488 271.536C1506.24 254.109 1530.29 244.055 1555.5 243.314ZM1218.91 317.177C1218.76 300.809 1219.09 289.863 1224.46 280.447C1231.13 268.93 1243.28 263.443 1254.28 263.391H1254.23C1265.3 263.443 1277.38 268.93 1283.99 280.447C1289.36 289.85 1289.67 300.809 1289.54 317.177H1218.91ZM1289.18 373.621C1289.18 373.621 1289.26 374.452 1289.26 384.996C1289.26 419.223 1266.74 426.849 1254.28 426.849C1241.76 426.849 1218.85 419.223 1218.85 384.996C1218.85 374.711 1218.98 346.346 1218.98 346.346C1218.98 346.346 1378.34 346.398 1378.34 346.346C1378.34 288.293 1322.33 240.215 1253.5 240.215C1184.71 240.215 1128.9 287.269 1128.9 345.257C1128.9 403.322 1184.71 450.377 1253.5 450.377C1310.59 450.377 1358.8 417.771 1373.58 373.544L1289.18 373.621ZM2197.51 224.638H2187.75V160.554H2212.2C2227.3 160.554 2234.82 166.144 2234.82 178.764C2234.82 190.216 2227.62 195.209 2218.18 196.416L2236.39 224.638H2225.55L2208.62 196.844H2197.51V224.638ZM2209.1 188.608C2217.34 188.608 2224.63 188.037 2224.63 178.18C2224.63 170.256 2217.43 168.764 2210.72 168.764H2197.49V188.608H2209.1Z" fill="#E0E0DD"/>
<path fill-rule="evenodd" clip-rule="evenodd" d="M2152.79 192.421C2152.79 160.541 2178.67 137.027 2209.23 137.027C2239.53 137.027 2265.34 160.554 2265.34 192.421C2265.34 224.625 2239.53 248.126 2209.23 248.126C2178.67 248.126 2152.79 224.638 2152.79 192.421ZM2209.23 238.866C2234.38 238.866 2254.17 219.178 2254.17 192.421C2254.17 166.144 2234.39 146.275 2209.23 146.275C2183.82 146.275 2163.99 166.144 2163.99 192.421C2163.99 219.191 2183.82 238.866 2209.23 238.866Z" fill="#E0E0DD"/>
</svg>
